<svg width="949" height="860" viewBox="0 0 949 860" fill="none" xmlns="http://www.w3.org/2000/svg">
<path d="M523.26 355.01C517.43 350.12 502.47 360.4 491.55 369.29L487.35 353.29C494.94 344.74 521.98 313.19 515.95 304.17C509.17 298.48 490.06 313.3 479.3 322.6L450.36 212.3C450.36 212.3 592.22 39.72 557.48 6.28999C522.74 -27.14 370.54 149.92 370.54 149.92L262.39 141.73C270.47 129.91 280.5 112.7 274.81 107.08C265.59 102.1 238.34 129.8 229.46 139.23L223.1 138.75C230.12 127.66 236.62 114.54 231.79 109.77C224 105.57 203.38 124.65 191.79 136.38L70.39 127.18L281.73 252.11L182.78 377.99L0.5 362.45L142.39 447.67C142.39 447.67 120.86 490.35 131.82 502.58C146.08 518.49 188.11 488.01 188.11 488.01L294.53 617.42L254.15 433.61L371.49 320.55L527.6 506.59L499.32 398.8C509.72 386.49 528.37 362.66 523.26 355.01Z" fill="#0089F9"/>
<path d="M82.4 629.08C78.54 645.6 79.92 663.09 82.02 679.75C86.57 712.3 98.06 745.07 117.75 771.29C213.99 899.16 435.27 772.94 539.64 709.26C701.57 608.26 836.07 456.91 896.54 274.15C901.66 258.56 906.52 242.64 910.16 226.65C925.05 162.61 911.15 96.94 859.64 53.1C821.45 20.23 770.65 4.83997 720.62 2.23997C790.54 -5.76003 867.22 17.88 910.96 75.38C951.93 128.6 955.85 196.35 940.39 259.69C893.11 467.66 746.05 642.71 564.82 750.16C554.06 756.55 541.59 763.81 530.61 769.76C444.95 815.55 340.71 863.2 241.67 859.19C162.21 856.19 100.39 810.77 81.13 732.49C73.37 701.7 70.61 658.81 82.4 629.08Z" fill="#682146"/>
</svg>
